# xmcd
#
# Track frame offsets:
#	150
#	15716
#	33443
#	54302
#	72645
#	89598
#	105543
#	122109
#	150458
#	167273
#	185244
#	201654
#	221222
#	242591
#	259354
#	275844
#	301236
#
# Disc length: 4275 seconds
#
# Revision: 1
# Processed by: cddbd v1.5.2PL0 Copyright (c) Steve Scherf et al.
# Submitted via: dBpowerAMP V4.0
#
DISCID=0110b111
DTITLE=張智霖 - 至霖情歌集 Disc 2
DYEAR=1999
DGENRE=
TTITLE0=承諾
TTITLE1=生活習慣
TTITLE2=分開了 仍覺溫暖
TTITLE3=怎會如此
TTITLE4=仍然是你
TTITLE5=別要我放棄
TTITLE6=無味關懷
TTITLE7=如果你失眠時
TTITLE8=命運交響曲
TTITLE9=暫停的故事
TTITLE10=熱身
TTITLE11=寧願沒有愛情
TTITLE12=傷心者的眼光
TTITLE13=風雪故人來
TTITLE14=傾情
TTITLE15=夢斷
TTITLE16=謝謝你
EXTD=
EXTT0=
EXTT1=
EXTT2=
EXTT3=
EXTT4=
EXTT5=
EXTT6=
EXTT7=
EXTT8=
EXTT9=
EXTT10=
EXTT11=
EXTT12=
EXTT13=
EXTT14=
EXTT15=
EXTT16=
PLAYORDER=
